<svg xmlns:xlink="http://www.w3.org/1999/xlink" xmlns="http://www.w3.org/2000/svg" version="1.1" viewBox="0 0 440 440" height="440px" width="440px">
    <title>笔芯</title>
    <defs>
        <linearGradient id="linearGradient-1" y2="94.9598849%" x2="50%" y1="0.455533649%" x1="50%">
            <stop offset="0%" stop-color="#9ED7FC"></stop>
            <stop offset="100%" stop-color="#DDEBF8"></stop>
        </linearGradient>
        <linearGradient id="linearGradient-2" y2="94.9598849%" x2="50%" y1="0.455533649%" x1="50%">
            <stop offset="0%" stop-color="#9ED7FC"></stop>
            <stop offset="100%" stop-color="#DDEBF8"></stop>
        </linearGradient>
        <linearGradient id="linearGradient-3" y2="94.9598849%" x2="50%" y1="0.455533649%" x1="50%">
            <stop offset="0%" stop-color="#9ED7FC"></stop>
            <stop offset="100%" stop-color="#DDEBF8"></stop>
        </linearGradient>
    </defs>
    <g fill-rule="evenodd" fill="none" stroke-width="1" stroke="none" id="笔芯">
        <g transform="translate(74.000000, 42.184455)">
            <g fill-rule="nonzero" transform="translate(21.793495, 335.166981)" id="脚">
                <path fill="#FFFFFF" d="M22.9008525,1.32207136 C34.92485,1.32207136 44.8017051,8.19292706 44.8017051,16.6741396 C44.8017051,25.1553521 34.92485,32.0262078 22.9008525,32.0262078 C10.7694979,32.0262078 1,25.1553521 1,16.6741396 C1,8.19292706 10.7694979,1.32207136 22.9008525,1.32207136 L22.9008525,1.32207136 Z"></path>
                <path fill="#000000" id="脚备份" d="M22.9008525,0.322071361 C18.8281672,0.322071361 14.9977674,1.07488643 11.6778571,2.40183694 L11.0417403,2.66578731 C4.43095853,5.51153548 0,10.6808945 0,16.6741396 C0,25.8067034 10.2886656,33.0262078 22.9008525,33.0262078 C35.4424042,33.0262078 45.8017051,25.7816967 45.8017051,16.6741396 C45.8017051,7.56658247 35.4424042,0.322071361 22.9008525,0.322071361 Z M22.9008525,2.32207136 C34.4591592,2.32207136 43.8017051,8.85554095 43.8017051,16.6741396 C43.8017051,24.4927382 34.4591592,31.0262078 22.9008525,31.0262078 C11.2726315,31.0262078 2,24.5196494 2,16.6741396 C2,8.82862975 11.2726315,2.32207136 22.9008525,2.32207136 Z"></path>
                <path fill="#FFFFFF" d="M109.323334,1 C121.347332,1 131.224187,7.8708557 131.224187,16.3520682 C131.224187,24.8332807 121.347332,31.7041364 109.323334,31.7041364 C97.2993369,31.7041364 87.4224818,24.8332807 87.4224818,16.3520682 C87.4224818,7.8708557 97.2993369,1 109.323334,1 Z"></path>
                <path fill="#000000" id="脚备份-2" d="M109.323334,0 C96.7817828,0 86.4224818,7.24451111 86.4224818,16.3520682 C86.4224818,25.4596253 96.7817828,32.7041364 109.323334,32.7041364 C121.864886,32.7041364 132.224187,25.4596253 132.224187,16.3520682 C132.224187,7.24451111 121.864886,0 109.323334,0 Z M109.323334,2 C120.881641,2 130.224187,8.53346959 130.224187,16.3520682 C130.224187,24.1706668 120.881641,30.7041364 109.323334,30.7041364 C97.7650277,30.7041364 88.4224818,24.1706668 88.4224818,16.3520682 C88.4224818,8.53346959 97.7650277,2 109.323334,2 Z"></path>
            </g>
            <g fill-rule="nonzero" transform="translate(2.406836, 196.031695)" id="衣服">
                <path fill="url(#linearGradient-1)" d="M127.421708,1.75195813 C129.246779,4.32852901 134.936707,4.97267174 134.936707,4.97267174 C163.815772,13.4538842 164.9967,37.1798078 164.9967,37.1798078 C169.613056,47.3787343 160.702415,52.2098047 160.702415,52.2098047 C148.356347,59.9395173 139.230991,56.5040895 139.230991,56.5040895 L140.304563,59.7248031 L151.040275,143.463357 C126.884923,165.793638 102.72957,150.978355 102.72957,150.978355 L83.4052888,96.226224 L66.8722923,153.876998 C42.9316545,163.324424 17.4880169,148.509142 17.4880169,148.509142 L23.2853014,102.667651 L28.6531575,59.7248031 C13.3010893,61.6572313 8.2553046,54.3569471 8.2553046,54.3569471 C-2.37305031,46.9493058 1.81387738,37.1798078 1.81387738,37.1798078 C12.6569465,6.15360006 37.2417271,4.97267174 37.2417271,4.97267174 C45.9376538,3.79174341 42.9316545,1.00045828 42.9316545,1.00045828 L127.421708,1.75195813 Z"></path>
                <path fill="#000000" id="衣服备份" d="M42.2476125,1.72989982 C42.3830705,1.8649773 42.4720389,2.06827319 42.4068504,2.20021294 C42.2990967,2.41830357 41.9582339,2.69610966 41.2892481,2.98619925 C40.3674305,3.3859233 38.9874888,3.72641395 37.1071598,3.98176728 L36.8414645,3.99910641 L36.4510715,4.03901924 L36.1273619,4.07918795 L35.5553695,4.16131012 C35.4864172,4.17195644 35.4157386,4.18312273 35.3434065,4.1948217 C33.9145404,4.42592624 32.3270125,4.79377553 30.6203322,5.3285575 C25.7571141,6.8524289 20.8975284,9.40660473 16.3651288,13.2318096 L15.9282174,13.6054192 C9.69285488,19.0075847 4.62302256,26.4369455 1.11226815,36.1672955 L0.882788289,36.8164583 L0.868500782,36.8496191 C0.660908964,37.3690826 0.43759498,38.1059108 0.263670519,39.0254355 C-0.00324074448,40.436574 -0.0826899584,41.946109 0.0957312725,43.5122509 L0.139998744,43.8640412 C0.704493973,47.9597743 2.95439719,51.7552233 7.30541249,54.9086333 L7.54078829,55.0754583 L7.64640173,55.2129367 C8.27947329,56.0105955 9.42105636,57.0473983 11.15268,58.0656801 L11.4724099,58.2493839 C15.3449555,60.4229546 20.5071075,61.4801928 27.0999482,60.8971974 L27.5037883,60.8584583 L22.2930236,102.543616 L16.4959188,148.383677 C16.4455745,148.78177 16.6380637,149.171405 16.9848262,149.373317 L17.3032198,149.552678 L17.6780744,149.756361 C17.8628747,149.855491 18.0578594,149.958304 18.2628183,150.064492 L18.9074071,150.39287 L19.6105789,150.739648 C21.6964585,151.75221 24.0575458,152.763776 26.648615,153.707623 C38.7897171,158.130253 51.3523383,159.56437 63.1315944,156.199717 C64.5224761,155.802422 65.8921602,155.338822 67.2393638,154.80719 L67.3443505,154.758574 C67.5811395,154.631802 67.7586109,154.413962 67.8335456,154.152664 L83.5027883,99.5094583 L101.78658,151.311175 C101.862907,151.527436 102.011248,151.71089 102.206742,151.830793 L102.602747,152.059171 L102.999623,152.274582 L103.446553,152.50604 C103.525167,152.545853 103.605832,152.586259 103.688531,152.62722 C104.862107,153.208499 106.212976,153.788328 107.724079,154.328781 C113.404119,156.360274 119.706567,157.299345 126.355103,156.537456 C135.144241,155.530265 143.700442,151.61046 151.719097,144.19766 C151.956656,143.97805 152.073296,143.657083 152.032156,143.336193 L141.296444,59.5976388 L141.253246,59.4085753 L140.756788,57.9204583 L141.151824,57.9915817 C146.772329,58.9452847 153.676983,57.7881601 161.233077,53.0573887 C161.973719,52.6580617 163.115952,51.8232423 164.255477,50.560351 L164.452346,50.3375423 C167.426669,46.8991581 168.352956,42.4504485 166.061724,37.116566 L165.982788,36.9384583 L165.949964,36.5792388 L165.906086,36.2022184 L165.84604,35.7604666 C165.834598,35.6815718 165.822417,35.6000736 165.809465,35.5160186 C165.617676,34.2713618 165.31585,32.8886456 164.880032,31.4021202 C163.637669,27.1645539 161.571215,22.9291711 158.488146,18.9764593 C153.244099,12.2532214 145.611498,7.06541529 135.218487,4.01319272 L135.055397,3.97974045 L135.022518,3.97581021 C134.221191,3.87738413 133.101112,3.6638597 131.935663,3.3061972 C130.273458,2.79608603 129.003725,2.11875541 128.352528,1.3242679 L128.237733,1.17394079 C128.052069,0.911827412 127.751797,0.754854561 127.430602,0.751997681 L42.9405486,3.91437225e-05 C42.02737,-0.00762446205 41.5820055,1.11185378 42.2476125,1.72989982 Z M2.7236028,37.5969909 L2.73302241,37.5737271 C6.23841942,27.5505785 11.3482176,20.0830125 17.6550662,14.7602276 C21.9740046,11.1151774 26.5979952,8.68482922 31.2183535,7.23705706 C32.8309249,6.73176378 34.3255594,6.38543899 35.6627363,6.16916425 L36.1934156,6.08922177 L36.6702554,6.02862986 L37.0998983,5.98523733 L37.2897067,5.97152005 C41.3568863,5.42300198 43.5057133,4.49121488 44.1999322,3.08613491 L44.2790508,2.908364 C44.3968975,2.61142307 44.445304,2.31172624 44.4337883,2.01245828 L126.936788,2.74745828 C127.908405,3.83955169 129.436002,4.63114226 131.348896,5.21818686 C132.092494,5.44638822 132.851961,5.62862419 133.596448,5.77054834 L134.054705,5.85318876 L134.452219,5.9164151 L134.728788,5.95345828 L134.654926,5.93215075 C144.64639,8.86644682 151.924519,13.813321 156.911132,20.2065114 C159.829988,23.9486906 161.786059,27.957834 162.960814,31.9647939 C163.370988,33.3638526 163.65405,34.6606075 163.832794,35.8206041 C163.879309,36.12247 163.915995,36.3978968 163.944064,36.6450617 L163.986152,37.0660215 L163.997937,37.22952 C164.004174,37.3548358 164.033939,37.4778585 164.085678,37.5921652 C166.275494,42.4301313 165.460647,46.2392489 162.770599,49.2205237 C162.20449,49.84792 161.596708,50.3838773 160.990667,50.8268114 L160.707022,51.0277443 L160.472361,51.1831252 L160.292891,51.2929135 C160.267923,51.3074099 160.245513,51.3200048 160.225791,51.3306976 C152.763873,56.0001983 146.127461,56.9759303 140.869347,55.9046143 L140.469909,55.8179123 L140.134342,55.7354675 L139.753571,55.6265269 L139.583321,55.5682136 L139.480695,55.5353816 C138.729706,55.3369403 138.027682,56.0564392 138.282308,56.8203172 L139.323788,59.9444583 L149.981788,143.075458 L149.375215,143.620169 C141.960221,150.166289 134.138704,153.632406 126.127403,154.55046 C119.808679,155.274554 113.807003,154.380299 108.397606,152.445603 C106.962106,151.93219 105.682333,151.382877 104.576222,150.835013 L104.351604,150.722537 L103.938802,150.508812 L103.548788,150.296458 L84.3482791,95.8934039 L84.3005754,95.7790661 C83.9121201,94.9803383 82.7007803,95.0552849 82.4440355,95.9505573 L66.0477883,153.121458 L66.5052207,152.946805 C65.218996,153.454373 63.9109974,153.897095 62.5822802,154.276632 C51.271565,157.50745 39.1130183,156.119462 27.3331514,151.828419 C25.061558,151.000947 22.9725551,150.120526 21.1000762,149.235535 L20.1374482,148.770883 L19.4876373,148.445245 C19.3841955,148.392545 19.2832015,148.340657 19.1846823,148.289621 L18.5647883,147.962458 L24.2773996,102.793116 L29.6454353,59.8488378 C29.7263639,59.201409 29.1756278,58.6511466 28.5282688,58.7326323 C21.3670374,59.6340461 16.0012887,58.5967309 12.1664833,56.3416723 C11.1781901,55.7605062 10.3765556,55.1423385 9.7471695,54.5298744 C9.61088385,54.397253 9.49496236,54.277563 9.39869903,54.1731033 L9.2321741,53.985172 C9.2087187,53.9574617 9.18739524,53.9316139 9.16817759,53.9077138 L9.07793206,53.7883663 C9.01002816,53.6901224 8.92507496,53.6048364 8.82709726,53.5365489 C4.57519084,50.573099 2.51366054,47.0671844 2.08287757,43.2858672 C1.92848829,41.9306724 1.99744956,40.6204083 2.22882649,39.397137 C2.37732381,38.6120436 2.56362276,37.9973471 2.7236028,37.5969909 Z"></path>
            </g>
            <g fill-rule="nonzero" transform="translate(0.000000, 49.704399)" id="帽子">
                <path fill="url(#linearGradient-2)" d="M86.8856962,1 C134.337543,1 172.771392,35.3542785 172.771392,77.760341 C172.771392,120.166404 134.337543,154.520682 86.8856962,154.520682 C39.4338491,154.520682 1,120.166404 1,77.760341 C1,35.3542785 39.4338491,1 86.8856962,1 Z"></path>
                <path fill="#000000" id="帽子备份" d="M86.8856962,0 C38.9065839,0 0,34.7740193 0,77.760341 C0,120.746663 38.9065839,155.520682 86.8856962,155.520682 C134.864809,155.520682 173.771392,120.746663 173.771392,77.760341 C173.771392,34.7740193 134.864809,0 86.8856962,0 Z M86.8856962,2 C133.807166,2 171.771392,35.9317564 171.771392,77.760341 C171.771392,119.588926 133.807166,153.520682 86.8856962,153.520682 C39.964226,153.520682 2,119.588926 2,77.760341 C2,35.9317564 39.964226,2 86.8856962,2 Z"></path>
                <path fill="#64BEF8" id="蓝色" d="M94.6154089,1.64414272 C85.4900537,29.8790654 87.8519103,41.4736344 87.8519103,41.4736344 C82.4840543,41.4736344 78.8339122,41.3662772 78.8339122,41.3662772 C78.2971266,24.9406378 85.5974108,1.32207136 85.5974108,1.32207136 L94.6154089,1.64414272 Z"></path>
                <path fill="#000000" id="蓝色备份" d="M94.6511004,0.644779867 L85.6331023,0.322708507 C85.181631,0.30658453 84.7754155,0.595153185 84.6420082,1.02676509 L84.3969299,1.84353696 L84.0314947,3.10389271 L83.6908325,4.31482535 L83.5720212,4.74480348 C82.772187,7.6523915 81.9725138,10.815254 81.2260431,14.1259464 C80.0711366,19.2481036 79.1516058,24.2484682 78.5546718,28.9527135 C77.9713246,33.5498853 77.7145322,37.7295848 77.8344458,41.3989395 C77.850473,41.8893726 78.2182583,42.2896185 78.6936414,42.356466 L78.8256855,42.3664545 L81.3130185,42.4198122 L82.6822724,42.4403563 L84.1160452,42.4563956 L85.6100358,42.4674506 L87.159943,42.4730417 L87.8510539,42.4736422 C88.4839024,42.474176 88.9581063,41.8941435 88.8317869,41.2740299 L88.8079101,41.1400967 L88.7622869,40.8150382 L88.7276857,40.5146865 L88.7097344,40.3391921 C88.6335018,39.5629519 88.5848816,38.6176803 88.5779667,37.4981816 L88.5777067,36.9957433 C88.5798058,36.5716019 88.5871776,36.1384514 88.5999542,35.6962444 L88.632753,34.7997412 C88.6394336,34.6483068 88.6467245,34.4958626 88.6546307,34.3424069 L88.7094893,33.4095203 C88.7198759,33.2520115 88.7308875,33.0934876 88.742529,32.933947 L88.8199762,31.964488 L88.912776,30.9705423 L89.0211636,29.9520259 C89.1180466,29.0930011 89.2314116,28.2082943 89.3618704,27.2976866 L89.5266651,26.192511 C89.5555115,26.0062384 89.5850514,25.8189262 89.6152897,25.6305727 L89.80514,24.4879423 L90.0119879,23.3202371 C90.047892,23.1235253 90.0845142,22.9257653 90.1218592,22.7269552 L90.3546438,21.52148 C90.3949001,21.3184628 90.4358891,21.114392 90.4776157,20.9092659 L90.7368656,19.6658318 L91.0140529,18.3969868 C91.0617586,18.1833903 91.1102215,17.9687316 91.1594465,17.7530089 L91.4639803,16.4458897 L91.7870388,15.1131495 C92.0086382,14.216097 92.2427442,13.3019078 92.4896698,12.3704697 L92.8697123,10.9603621 L93.2692193,9.52429729 C93.4056585,9.04127347 93.545381,8.55390945 93.6884259,8.06219122 L94.127567,6.57395989 L94.5868775,5.05951926 L95.0665925,3.51878531 L95.5669469,1.95167401 C95.7710849,1.32004698 95.3144734,0.66847176 94.6511004,0.644779867 Z M86.332,2.349 L93.261,2.596 L92.9118834,3.7066335 L92.436491,5.25384156 L91.9815729,6.77490353 C91.8333201,7.27757596 91.6884408,7.77590488 91.5468963,8.26990449 L91.1322284,9.7389295 C91.0647715,9.98160707 90.9981387,10.2232058 90.9323249,10.4637276 L90.5472333,11.8939482 C90.4846767,12.130169 90.4229296,12.3653163 90.361987,12.599392 L90.0059479,13.9909995 L89.6689859,15.3569714 L89.3508682,16.6973927 C89.299406,16.9186718 89.2487193,17.1388898 89.1988032,17.3580485 L88.9085154,18.6603033 C88.8148095,19.0901606 88.7241472,19.5157948 88.6364898,19.9372202 L88.3824935,21.1888843 L88.1462937,22.4153805 C87.8052248,24.2362915 87.523433,25.9725483 87.2973817,27.6254427 L87.1548998,28.7150366 C87.0429818,29.6127634 86.9480251,30.4848498 86.8694232,31.3315172 L86.7829126,32.3353311 L86.7118697,33.3148279 L86.6560618,34.2700926 C86.6480171,34.4272888 86.6405975,34.5834788 86.6337981,34.7386645 L86.600406,35.6577406 C86.5873926,36.1112668 86.5798739,36.5557856 86.5777191,36.991345 L86.5779859,37.5049073 L86.5827832,37.9412105 C86.5964364,38.7970731 86.6341129,39.5527223 86.6899217,40.2126556 L86.713,40.471 L84.8706951,40.4626328 L83.4140467,40.4490979 L81.346912,40.4200994 L79.811,40.39 L79.8069411,39.9771309 C79.7849288,36.7554924 80.0391731,33.1415791 80.5387619,29.2044799 C81.1269213,24.5693847 82.0352438,19.6299707 83.177065,14.5658485 C83.8341464,11.6516086 84.5330397,8.8523107 85.2364656,6.24419981 L85.6178747,4.8500905 L85.954543,3.65333398 L86.332,2.349 Z"></path>
            </g>
            <g fill-rule="nonzero" transform="translate(30.523208, 91.285390)" id="脸">
                <path fill="#F8E3DE" id="椭圆-5" d="M56.4698453,0 C87.6034102,0 112.832333,21.7934954 112.832333,48.5254184 C112.832333,75.3646985 87.6034102,97.1581939 56.4698453,97.1581939 C25.3362804,97.1581939 0,75.3646985 0,48.5254184 C0,21.7934954 25.3362804,0 56.4698453,0 Z"></path>
                <path fill="#000000" id="椭圆-5备份" d="M56.4698453,-1 C24.8234449,-1 -1,21.1973181 -1,48.5254184 C-1,75.9438609 24.8038441,98.1581939 56.4698453,98.1581939 C88.1158677,98.1581939 113.832333,75.9608234 113.832333,48.5254184 C113.832333,21.1803832 88.0963163,-1 56.4698453,-1 Z M56.4698453,1 C87.0523182,1 111.832333,22.3564605 111.832333,48.5254184 C111.832333,74.7855246 87.0713142,96.1581939 56.4698453,96.1581939 C25.8474417,96.1581939 1,74.7672205 1,48.5254184 C1,22.3747385 25.8664897,1 56.4698453,1 Z"></path>
            </g>
            <g fill-rule="nonzero" transform="translate(48.491284, 111.146457)" id="左眼">
                <path fill="#000000" id="形状-11" d="M1.89299086,-1.52563644e-14 C12.8434171,0.322071361 19.2848443,6.76349858 19.2848443,6.76349858 C20.4657727,9.01799811 18.5333445,7.9444269 18.5333445,7.9444269 C11.6624888,4.29428481 0.175276931,0.858856962 0.175276931,0.858856962 C-0.683580031,0.10735712 1.89299086,-1.52563644e-14 1.89299086,-1.52563644e-14 Z"></path>
                <path fill="#000000" id="椭圆-1" d="M11.1257032,14.6005684 C14.7758453,14.278497 18.103916,17.4992106 18.5333445,21.6861383 C18.962773,25.9804231 16.278845,29.6305652 12.6287029,29.8452794 C8.87120368,30.1673508 5.54313295,26.9466372 5.22106159,22.6523524 C4.7916331,18.4654247 7.47556111,14.8152826 11.1257032,14.6005684 L11.1257032,14.6005684 Z"></path>
                <path fill="#FFFFFF" id="椭圆-2" d="M13.2728456,18.2507105 C14.4537739,18.1433533 15.419988,19.2169245 15.5273451,20.7199242 C15.6347023,22.2229239 14.7758453,23.5112093 13.7022741,23.5112093 C12.6287029,23.6185665 11.5551317,22.5449953 11.4477746,21.0419956 C11.3404174,19.5389959 12.1992744,18.2507105 13.2728456,18.2507105 Z"></path>
                <path fill="#FFFFFF" id="椭圆-3-拷贝" d="M14.0243455,24.9068519 C14.5611311,24.9068519 14.9905595,25.1215662 14.9905595,25.5509946 C14.9905595,25.873066 14.5611311,26.1951374 14.0243455,26.1951374 C13.4875598,26.1951374 12.9507742,25.873066 12.9507742,25.5509946 C12.9507742,25.1215662 13.4875598,24.9068519 14.0243455,24.9068519 Z"></path>
            </g>
            <g fill-rule="nonzero" transform="translate(101.855526, 111.146457)" id="右眼">
                <path fill="#000000" id="形状-11" d="M19.5991625,0.858856962 C19.5991625,0.858856962 8.11195067,4.29428481 1.13373785,7.9444269 C1.13373785,7.9444269 -0.798690319,9.01799811 0.382238004,6.76349858 C0.382238004,6.76349858 6.82366522,0.322071361 17.8814486,-1.52563644e-14 C17.8814486,-1.52563644e-14 20.3506624,0.10735712 19.5991625,0.858856962 L19.5991625,0.858856962 Z"></path>
                <path fill="#000000" id="椭圆-1" d="M14.5533779,22.6523524 C14.1239494,26.9466372 10.7958787,30.1673508 7.14573658,29.8452794 C3.38823737,29.6305652 0.811666485,25.9804231 1.13373785,21.6861383 C1.56316633,17.4992106 4.89123706,14.278497 8.54137915,14.6005684 C12.2988784,14.8152826 14.9828064,18.4654247 14.5533779,22.6523524 L14.5533779,22.6523524 Z"></path>
                <path fill="#FFFFFF" id="椭圆-2" d="M10.2590931,21.0419956 C10.151736,22.5449953 9.18552187,23.6185665 8.00459355,23.5112093 C6.93102234,23.5112093 6.07216538,22.2229239 6.1795225,20.7199242 C6.28687962,19.2169245 7.2530937,18.1433533 8.43402203,18.2507105 C9.50759323,18.2507105 10.3664502,19.5389959 10.2590931,21.0419956 Z"></path>
                <path fill="#FFFFFF" id="椭圆-3-拷贝" d="M5.75009402,24.9068519 C6.28687962,24.9068519 6.7163081,25.1215662 6.7163081,25.5509946 C6.7163081,25.873066 6.28687962,26.1951374 5.75009402,26.1951374 C5.21330842,26.1951374 4.67652282,25.873066 4.67652282,25.5509946 C4.67652282,25.1215662 5.21330842,24.9068519 5.75009402,24.9068519 Z"></path>
            </g>
            <g fill-rule="nonzero" transform="translate(31.059994, 138.377606)" id="口罩">
                <path fill="#64BEF8" id="帽子" d="M0,12.1689148 C0,12.1689148 26.8392801,12.0615576 44.4458478,4.00977363 C44.4458478,4.00977363 56.6845595,-4.79351024 68.8159141,3.68770226 C68.8159141,3.68770226 82.987054,10.4512008 112.724976,8.94820116 C112.724976,8.94820116 108.430692,48.992407 56.8992738,51.8910493 C56.8992738,51.8910493 9.87685507,51.0321923 0,12.1689148 Z"></path>
                <path fill="#000000" id="帽子备份-2" d="M68.8159141,3.68770226 L69.1612902,3.84109841 L69.6530068,4.04415367 L70.3602213,4.31709841 L71.0818548,4.57819952 L71.7143511,4.79517255 L72.6798042,5.10803697 L73.4957807,5.35720425 L74.3907684,5.61611098 L75.3649934,5.88232228 L76.058609,6.06265219 L76.7876088,6.24442497 L77.9476,6.51821139 L78.7653529,6.70043507 C78.9046114,6.73073555 79.045354,6.76099093 79.1875821,6.79118619 L80.0587879,6.9715161 L80.9657128,7.14968168 L81.9084236,7.3249615 C82.0685279,7.35389424 82.2301262,7.38267669 82.3932197,7.4112938 L83.3897351,7.58089229 L84.422204,7.74580141 C84.77236,7.7999094 85.1285194,7.85311559 85.4906933,7.90529974 L86.5952701,8.05866583 L87.7360014,8.20517824 L88.912954,8.34411553 C89.7096779,8.43405503 90.530594,8.51846349 91.3757917,8.59637899 L92.6618106,8.70826229 C92.879186,8.72605781 93.0980818,8.74341745 93.3184994,8.7603262 L94.6592775,8.85624764 L96.0366455,8.94062604 C100.921544,9.21490845 106.480013,9.26383109 112.724976,8.94820116 L112.669322,9.36400559 L112.58932,9.86500402 L112.465258,10.5447269 L112.354637,11.0909917 C112.313756,11.2849809 112.268751,11.4906651 112.219281,11.7074269 L112.057129,12.3903272 C109.648551,22.160599 99.1550363,49.5141626 56.8992738,51.8910493 L56.2369138,51.8656832 L55.5727692,51.828138 L54.7001542,51.7658964 L54.0093274,51.7077102 L53.2359474,51.6340902 L52.384054,51.5432537 L51.4576875,51.4334174 L50.4608878,51.3027986 C50.2891095,51.2791979 50.1145649,51.2546569 49.937338,51.2291385 L48.8424637,51.0640027 C34.9586561,48.8753448 7.30887275,40.9277402 0,12.1689148 L1.22478299,12.1476668 L2.53254875,12.1080855 L3.93712579,12.0512947 L5.60152185,11.9671395 L6.71460098,11.9012798 L8.32115978,11.793136 L9.61100526,11.6952779 L11.4338944,11.5402637 L12.8714691,11.4040984 L13.8604168,11.3031994 L15.3857344,11.1358095 L16.4282392,11.0130212 L18.026485,10.8111878 L19.1126702,10.6643644 L20.2135621,10.507326 L21.3275806,10.3397294 L22.4531452,10.1612312 L23.5886759,9.97148822 L24.7325923,9.770157 C24.923856,9.73561704 25.1154033,9.70057993 25.3072013,9.66503852 L26.4607333,9.44568125 C26.6534021,9.40809403 26.8462558,9.3699882 27.0392613,9.33135662 L28.1988533,9.09320081 C33.6163298,7.9518305 39.101254,6.38705053 43.9309235,4.24184522 L44.4495071,4.00715873 L44.8006631,3.77176289 L45.1316064,3.5637254 L45.5634483,3.30623837 L45.9506924,3.0866981 L46.5476989,2.76677947 L46.8794464,2.59798122 L47.2325665,2.42495998 L47.6064667,2.24896795 L48.0005542,2.07125735 L48.4142367,1.89308038 L48.8469213,1.71568927 L49.2980155,1.54033623 C49.3746991,1.51135013 49.452125,1.48250113 49.530281,1.45381531 L50.0078785,1.28386727 C50.0889052,1.25593853 50.1706373,1.22822514 50.2530623,1.20075321 L50.7558296,1.03902765 C50.9261249,0.986224052 51.0990933,0.934594939 51.2746362,0.884349016 L51.8088892,0.737969515 L52.3579962,0.601141362 C52.4507189,0.579202183 52.5440359,0.557713152 52.6379347,0.536700358 L53.2082114,0.416547128 C57.6323511,-0.457613807 63.235491,-0.213655487 68.8159141,3.68770226 Z M48.94771,3.83994078 C48.0148497,4.24426005 47.1760281,4.67654433 46.4476337,5.10604541 L46.0308935,5.35871246 L45.7378608,5.54767881 L45.6137068,5.63338241 C45.5082845,5.70921241 45.3957274,5.7745945 45.2776294,5.82860274 C37.5522857,9.36153434 27.6869909,11.6641933 16.6686834,12.9985152 C12.7540435,13.4725798 8.94079702,13.791409 5.35608921,13.9835504 L4.26425204,14.0383973 L3.22627854,14.0834143 L2.62,14.106 L2.76919805,14.5810352 C6.88175806,27.469888 15.6713396,36.5755998 27.8683764,42.5439252 L28.4086877,42.8052002 C34.6483118,45.7868434 41.3547331,47.7586631 48.0644832,48.90913 C50.4136052,49.3119151 52.5927756,49.5828391 54.5440123,49.7465884 L55.3203804,49.8067613 L56.0186722,49.8513746 L56.864,49.889 L57.4924045,49.8520274 C78.1127871,48.5457415 92.3217052,41.1704405 101.371692,29.6747874 L101.678217,29.2812968 C105.165421,24.7571929 107.616712,19.9067896 109.208599,15.0597925 C109.640536,13.7446263 109.983163,12.5050944 110.247053,11.3611213 L110.315,11.054 L109.935732,11.0686811 C97.2391097,11.5064156 86.5242577,10.5017267 77.7516641,8.52464288 L77.0973607,8.3745457 C74.4583569,7.75843586 72.1993346,7.09559572 70.3165845,6.42904187 L69.8098372,6.24637826 L69.147659,5.99635307 L68.7713801,5.84702161 L68.3045125,5.65140413 L68.0581793,5.5412841 C68.0214454,5.52434887 67.9868712,5.50813575 67.9544549,5.49266434 C67.8552277,5.44530588 67.7600747,5.3898456 67.6699632,5.32684729 L67.3811121,5.1284794 C61.4023075,1.09609266 55.0304954,1.20354668 48.94771,3.83994078 Z"></path>
            </g>
            <g fill-rule="nonzero" transform="translate(28.000000, 104.704399)" id="护目镜">
                <path fill="#F8E3DE" fill-opacity="0.1" d="M5.7972845,5.40218631 C5.7972845,5.40218631 62.5892011,-7.373311 113.369119,6.3684004 C113.369119,6.3684004 121.098832,10.0185425 118.522261,16.0305412 C118.522261,16.0305412 115.838333,36.321037 105.317335,42.8698213 C105.317335,42.8698213 84.812125,60.7984604 68.708557,36.9651797 C68.708557,36.9651797 63.4480581,28.6986814 56.5772024,35.2474658 C56.5772024,35.2474658 39.292706,61.9793887 13.5269972,40.830036 C13.5269972,40.830036 1.6103568,26.9809675 0,14.3128273 C0,14.3128273 0,6.58311464 5.7972845,5.40218631 L5.7972845,5.40218631 Z"></path>
                <path fill="#000000" id="护目镜备份" d="M40.4690688,-0.265277268 C31.44984,0.382740478 22.9805467,1.40021706 15.3058126,2.63339343 L13.8687839,2.86847105 L12.4905078,3.10211666 L11.1720882,3.33363785 L9.91462886,3.56234224 L8.71923375,3.78753743 L7.12297878,4.1016684 L6.06016812,4.32189516 L5.57781619,4.42656669 C2.79334596,4.993563 0.947222663,6.90301718 -0.0952129772,9.630448 C-0.46011103,10.585168 -0.70434933,11.5868234 -0.851632455,12.5901749 C-0.948465783,13.2498422 -0.990770479,13.8141659 -0.999916843,14.2369853 L-0.999916843,14.2999313 L-0.992017044,14.4389312 C-0.863158142,15.4526212 -0.668880633,16.4898477 -0.412183398,17.5490097 C0.682253248,22.0647798 2.86658255,26.8541228 5.81894678,31.7196067 C7.33685619,34.2211151 8.96192411,36.5834152 10.5873997,38.7357183 L10.8687061,39.1060408 L11.4097322,39.8058865 L11.9195039,40.4496749 L12.5729272,41.2502191 L12.7689863,41.4822779 L12.8925325,41.6029879 C24.0786452,50.7849221 34.6683394,52.0164716 44.2331035,47.3395429 C47.6547286,45.6664545 50.7235602,43.3319353 53.4173442,40.598876 L53.7598493,40.2472917 C55.2190881,38.7316651 56.3535289,37.3231001 57.1458061,36.1888856 L57.344,35.9 L57.2671399,35.9713347 C59.8177405,33.5402935 62.1471322,33.2070113 64.3900944,34.3390018 C65.2313011,34.7635466 66.0185335,35.3793379 66.7297631,36.1150981 C67.1389034,36.5383499 67.4707603,36.9446184 67.7154071,37.2855108 L67.8648955,37.5020552 C70.6724666,41.657935 73.7161292,44.7439177 76.9774381,46.8567913 C84.7574549,51.8971579 93.0659679,51.1830649 100.914086,46.9865669 C102.278917,46.2567732 103.513985,45.4748764 104.59942,44.6916562 C104.885743,44.4850535 105.146624,44.2890477 105.380993,44.1063026 L105.86707,43.7151282 L105.916,43.673 L105.845776,43.7187915 C110.608281,40.754375 114.143888,35.0694843 116.689952,27.6743441 C117.583238,25.0797625 118.292745,22.4406989 118.838918,19.8805567 C118.99593,19.1445756 119.131486,18.4513313 119.246834,17.8087708 L119.396504,16.9354116 L119.495,16.291 L119.441406,16.4244605 C120.904657,13.0102078 119.682301,9.98342209 116.866263,7.52497601 C116.198261,6.94179937 115.486589,6.43459231 114.77461,6.00326082 L114.428498,5.79938084 L114.132575,5.63523765 L113.892935,5.51111577 C113.858024,5.49377971 113.825712,5.47812306 113.796125,5.46415175 L113.630336,5.40312041 C91.2913353,-0.642106136 66.2538355,-2.11787318 40.4690688,-0.265277268 Z M111.982164,7.03356084 L113.017,7.309 L113.317029,7.46860197 L113.58612,7.62288455 C113.634977,7.65167623 113.68575,7.6819985 113.738307,7.71383881 C114.357337,8.08885946 114.976675,8.53026053 115.550948,9.0316099 C117.710887,10.9172713 118.60561,13.0210738 117.699726,15.3980153 L117.603116,15.6366219 C117.579425,15.6919014 117.560793,15.7491487 117.547415,15.8076593 L117.528052,15.920361 L117.445799,16.4762942 L117.374598,16.9126929 L117.242448,17.6603799 L117.07892,18.5130824 L116.951936,19.1361754 C116.929552,19.243511 116.906554,19.352559 116.882934,19.4632729 C116.352683,21.9487839 115.663818,24.5110632 114.798893,27.0232734 C112.388662,34.0238803 109.073921,39.3536405 104.788894,42.0208511 L104.659109,42.1170005 L104.355564,42.3675645 C104.092602,42.5783575 103.782879,42.8145428 103.429131,43.069798 C102.413103,43.8029366 101.252961,44.5373986 99.9710147,45.222873 C92.7025169,49.1094399 85.1365465,49.7597135 78.0648891,45.1782651 C75.1708255,43.3033152 72.4334827,40.5739703 69.8836809,36.910661 L69.490467,36.3348595 C69.1742576,35.8681221 68.732071,35.3088492 68.167745,34.7250593 C67.3117408,33.839531 66.3522624,33.0890051 65.2912081,32.5535063 C62.2964775,31.0421092 59.0530982,31.5061619 55.8872649,34.5235969 L55.8070285,34.6096318 L55.722599,34.7270806 L55.5572845,34.969804 L55.3103574,35.3167402 C55.2655643,35.3783582 55.2189611,35.4418263 55.1705611,35.5070732 L54.8587103,35.91933 L54.504391,36.3708568 C53.769284,37.2914064 52.9306635,38.2435316 51.9929329,39.1949342 C49.4473321,41.7776499 46.5550093,43.9778954 43.3545587,45.5428351 L43.0088411,45.7088916 C34.3546675,49.790918 24.8581965,48.6604041 14.5732789,40.3916461 L14.23,40.113 L13.71437,39.489233 L13.2357484,38.892176 C13.1531703,38.7878959 13.0692297,38.6812587 12.9839887,38.5723068 L12.4574353,37.891158 C12.3672413,37.7731168 12.2758712,37.6528456 12.1833872,37.5303868 C10.5964571,35.4291221 9.00911943,33.121669 7.5287836,30.6820818 C4.67419599,25.9777333 2.57071402,21.3656556 1.53154593,17.0779298 L1.39485024,16.4875561 C1.26527552,15.9001502 1.1571211,15.3216963 1.07090339,14.7526361 L1.001,14.249 L1.01397317,13.9468584 C1.01753951,13.8875891 1.02181341,13.8256842 1.02684787,13.7613077 L1.06660562,13.3467007 C1.08318325,13.1994862 1.10322732,13.0436969 1.12716199,12.8806444 C1.25449691,12.0131881 1.46472835,11.1509996 1.77298334,10.3444806 C2.5577628,8.29118193 3.83574748,6.91762301 5.74435286,6.43935119 L6.47691107,6.27799468 L7.52073655,6.06171656 L8.52832815,5.86155419 L9.68052556,5.64063081 L10.895243,5.41579688 L12.1713724,5.1877438 L13.5078059,4.957163 L14.9034356,4.72474588 L15.6231028,4.60806477 C23.2425647,3.38376956 31.6543398,2.37320304 40.6123963,1.72958043 C65.7577611,-0.0770754315 90.1727941,1.30625996 111.982164,7.03356084 Z"></path>
            </g>
            <g fill-rule="nonzero" transform="translate(30.003000, 194.670297)" id="衣服线条">
                <path fill="#64BEF8" id="形状-16" d="M10.6117774,0.322071361 C10.6117774,0.322071361 51.4074831,16.103568 102.080044,0 C102.080044,0 102.294758,3.43542785 104.763972,5.15314177 C104.763972,5.15314177 60.5328383,23.7259236 9.32349195,5.7972845 C9.32349195,5.7972845 10.7191345,3.11335649 10.6117774,0.322071361 Z"></path>
                <path fill="#64BEF8" id="形状-14" d="M53.5546255,89.213767 C59.4592671,52.6049889 53.5546255,12.1313546 53.5546255,12.1313546 L59.7813385,12.1313546 C64.2903375,43.9090622 59.4592671,89.8579097 59.4592671,89.8579097 L53.6744583,108.504329 L54.3140588,99.4484365 L53.5546255,89.213767 Z"></path>
                <path fill="#64BEF8" id="形状-13" d="M1.91585065,64.3069151 C1.91585065,64.3069151 56.667982,84.1679823 112.064256,60.2273445 L112.708399,66.024629 C112.708399,66.024629 73.8451213,90.6094095 1.59377929,70.8556994 L1.91585065,64.3069151 Z"></path>
                <path fill="#000000" id="路径-2" d="M11.693034,-0.943845669 L10.7595051,-1.27062105 L10.2309432,0.188783945 L9.52158704,2.17038842 L9.20099599,3.07933392 L8.62795684,4.73361886 L8.07912697,6.36172703 L8.93850571,6.72020681 C13.1389316,8.47236528 17.9748167,9.90684964 23.3435704,11.0618958 C29.2699962,12.3369209 35.5653137,13.2195718 42.176363,13.8189128 C44.0796795,13.9914627 45.9081221,14.131965 47.804582,14.2569574 L51.0274925,14.4521551 L52.753,14.553 L52.9032554,15.2140521 C54.0968099,20.5719373 54.8976496,26.8912035 55.3515511,33.9928279 C55.9416965,43.2260904 55.9211979,52.8590341 55.5110093,62.8645761 L55.3915029,65.5447561 L55.111,71.02 L53.7339795,71.0271671 C34.0947927,71.0524669 16.469277,68.2959483 0.854244313,62.7620986 L-0.316534133,62.3471836 L-0.471934951,63.5795501 C-0.509204475,63.8751065 -0.544893476,64.1804104 -0.579005036,64.4954712 L-0.676610478,65.4699339 C-0.754009884,66.3063945 -0.821569558,67.2038957 -0.879337679,68.1625868 L-0.943962561,69.3423968 L-0.999206054,70.5810063 L-1.02791309,71.3009843 L-0.354030161,71.5560808 L0.441795757,71.8499199 L1.2789891,72.1440264 C1.42075349,72.1926063 1.56363402,72.2409672 1.70763078,72.2891094 L2.58500671,72.5753362 C2.8819307,72.66987 3.18332028,72.7635288 3.48917611,72.8563128 L4.42014306,73.1320415 L5.37791161,73.4025244 L6.36248584,73.6677639 C6.52881557,73.7115336 6.69626238,73.755085 6.86482635,73.7984181 L7.88961671,74.0557967 C8.06264964,74.0982566 8.2367999,74.1404982 8.41206757,74.1825217 L9.47708321,74.4320446 L10.5689208,74.6763331 L11.6875844,74.9153895 L12.833078,75.1492162 C13.0262297,75.1877516 13.2204994,75.2260693 13.4158874,75.2641691 L14.6016337,75.4901554 C14.8014947,75.5273843 15.002474,75.5643957 15.2045717,75.6011893 L16.43058,75.8193403 L17.6834346,76.0322706 L18.9631395,76.2399825 L20.2696989,76.4424782 L21.6031169,76.6397601 C21.8275917,76.672206 22.0531857,76.7044348 22.2798991,76.7364465 L23.6536125,76.9259119 L25.0541945,77.110169 L26.4816493,77.2892203 L27.935981,77.4630679 L30.1678814,77.7140875 L32.4602775,77.9534117 L34.0221571,78.1064676 L35.6109338,78.2543311 L37.2266118,78.3970047 L38.869195,78.5344906 L40.5386876,78.6667911 L42.2350936,78.7939084 L43.9584171,78.9158447 L45.7086621,79.0326025 L47.4858328,79.144184 L49.2899331,79.2505913 L52.0465856,79.400506 L53.719,79.484 L52.5618052,89.0941513 L52.5548168,89.1942068 L52.228494,105.874065 L52.2379342,106.032082 C52.5712481,108.416242 52.5478987,110.408927 52.179649,112.005191 L50.2952961,120.173356 L54.1150306,112.540728 L54.2515688,112.239719 L54.3920007,111.902956 L54.5362696,111.530891 L54.6843185,111.123979 L54.8360906,110.682674 L54.9915292,110.207429 L55.1505775,109.698699 L55.3131786,109.156936 L55.4792756,108.582595 L55.7348519,107.660991 L55.9094404,107.00719 L56.1774875,105.968523 L56.3602123,105.238097 L56.7350703,103.688131 L57.1220942,102.022374 L57.4200725,100.699251 L57.8272929,98.8395915 L58.2454291,96.8741229 L58.7743124,94.3151038 L59.1904026,92.2453521 L59.7690137,89.2902837 L60.5483149,85.1777244 L61.1340098,81.9678834 L61.5211446,79.7459693 L61.567,79.47 L62.9310553,79.3547541 C83.9141737,77.5153064 101.013633,73.275887 114.231548,66.6231689 L114.948989,66.2620732 L114.751164,65.483628 C114.371615,63.9900982 114.04961,62.2906913 113.785958,60.3863475 L113.52989,58.4189376 L112.306555,58.9557792 C101.794482,63.5688387 90.6856245,66.835795 79.7724508,68.8924155 L78.1015661,69.1980646 L77.0425344,69.3816381 L75.9915683,69.5559745 L74.9512505,69.7210088 L73.9241638,69.8766759 L72.4139917,70.0924713 L71.4312821,70.2244364 L69.9997819,70.404374 L69.0775912,70.512231 L68.1841277,70.6103309 L66.9034459,70.7390442 L66.0931001,70.8124674 L65.3205211,70.875906 L64.5882915,70.9292952 L63.8989941,70.97257 L63.2552117,71.0056654 L62.6595268,71.0285164 L62.1145223,71.041058 L61.829,71.043 L61.8599802,70.7727847 C61.9724357,69.7394216 62.0724565,68.6152438 62.1607058,67.4151389 L62.2450558,66.1902763 L62.3217055,64.9181039 C62.3338469,64.7023165 62.3456737,64.4846957 62.3571888,64.2653104 L62.4225643,62.9283765 L62.4806081,61.5524038 L62.5314673,60.1407006 L62.5752894,58.6965752 L62.6122218,57.2233359 L62.6424118,55.7242913 L62.6660068,54.2027495 L62.6831542,52.662019 L62.6940014,51.1054081 L62.6987816,48.747953 L62.6902153,46.3733766 L62.6721624,44.290355 L62.638221,41.8097963 L62.5913186,39.346094 L62.5320209,36.9119484 L62.4413299,33.9301786 L62.3562115,31.6089709 L62.2350346,28.8085578 L62.098468,26.1436257 L62.0096007,24.6200162 L61.883524,22.6875577 L61.7492953,20.8799077 L61.6793006,20.0268547 L61.6074801,19.2097665 L61.4964806,18.0550408 L61.4204048,17.3348098 L61.3033537,16.3328115 L61.2234646,15.7193599 L61.142174,15.1513982 L61.072,14.706 L61.32874,14.7195306 L61.9245085,14.7393296 L62.5436649,14.7476311 C62.8590917,14.7489077 63.1832928,14.7458731 63.5162737,14.7385279 L64.1939437,14.7180903 L64.8950365,14.6861589 L65.6195622,14.6427346 L66.3675307,14.5878186 C66.4941463,14.5777083 66.621739,14.5671193 66.7503092,14.5560515 L67.5334607,14.4838997 L68.3400801,14.4002587 L69.1701772,14.3051296 L70.0237621,14.1985132 L70.9008448,14.0804108 C71.0489839,14.0597699 71.1981025,14.0386505 71.3482009,14.0170526 L72.2605489,13.8817229 L73.6731791,13.657197 L74.6443526,13.4931604 L75.6390738,13.3176427 L76.6573526,13.1306452 L77.699199,12.9321687 L78.7646231,12.7222143 L79.8536347,12.5007831 L81.5314008,12.1471194 L82.6794251,11.8970005 L83.851072,11.6354084 L85.0463514,11.362344 L86.8836033,10.9312393 L88.7740845,10.4743278 L90.7178287,9.99161317 L92.7148696,9.48309871 L94.7652409,8.94878796 L96.1617998,8.57825123 L97.582086,8.19625205 L99.7570259,7.60176344 L101.236674,7.19111264 L102.740085,6.769003 L105.039777,6.11435545 L106.467418,5.70471682 L105.550841,4.53602126 C105.404315,4.34919203 105.250559,4.1285856 105.089851,3.87446483 L104.843608,3.4681808 C104.634118,3.10871907 104.413981,2.69709658 104.18374,2.23382675 L103.902636,1.65314509 C103.854988,1.55224398 103.806945,1.4492852 103.758511,1.34427284 L103.463246,0.689588681 L103.158803,-0.0141840235 L102.647968,-1.23749912 L101.769551,-0.95057561 C70.6896431,9.20127231 40.6755158,9.20127231 11.693034,-0.943845669 Z M101.518,1.233 L101.674731,1.59048147 C102.118876,2.59124315 102.539794,3.44912439 102.939975,4.16648441 L103.171,4.568 L101.522659,5.03400842 L99.345812,5.64029782 L96.5236638,6.41005827 L94.4673302,6.95841388 L93.1251628,7.31019342 L91.1550181,7.81717889 L89.2366301,8.29934675 L87.9864744,8.60700607 L85.5552536,9.18924298 L83.7923299,9.59697804 L82.6458713,9.85502107 L81.5224828,10.102041 L80.4221742,10.3380388 L79.3449549,10.5630154 L77.7724398,10.879818 L76.7529862,11.0772461 L75.7566556,11.2636566 L74.7834578,11.4390504 L73.8334022,11.6034285 L72.4517316,11.8293435 L71.5595738,11.9661867 L70.6905918,12.0920178 L69.4305948,12.2601186 L68.6195948,12.3584234 L67.8318043,12.4457195 L67.0672329,12.5220078 L66.3258903,12.5872894 L65.6077862,12.6415651 L64.91293,12.6848361 L64.2413314,12.7171033 L63.593,12.7383677 L62.9679455,12.7486303 C62.86571,12.749424 62.7644448,12.7497593 62.66415,12.7496362 L62.0740288,12.743398 C61.7847925,12.7375289 61.5042941,12.7275351 61.232539,12.7134171 L60.7006878,12.6796824 C60.6139895,12.6731435 60.528263,12.6661464 60.4435085,12.6586911 L59.9466483,12.6084615 L58.5070167,12.4431103 L58.8632249,13.847744 C58.9285538,14.105355 58.9930146,14.4123375 59.0564522,14.7652446 L59.1508221,15.3286178 C59.166416,15.4281103 59.1819412,15.5303653 59.1973952,15.635329 L59.2892451,16.2971852 L59.3792698,17.0214651 L59.4673531,17.8055836 L59.5533786,18.6469555 L59.6372302,19.5429954 L59.7586772,20.9839029 L59.8365854,22.0053028 L59.9485725,23.6221319 L60.0543606,25.3328804 L60.1212483,26.5212483 L60.1850903,27.744895 L60.3031723,30.2876844 L60.3571798,31.6016566 L60.4315722,33.6185658 L60.4976734,35.6828604 L60.555091,37.7858153 L60.6034327,39.9187053 L60.6423063,42.0728054 L60.6713193,44.2393904 L60.6900797,46.4097351 L60.6981949,48.5751144 L60.6952728,50.7268032 L60.6809211,52.8560764 L60.6547474,54.9542088 L60.6305368,56.3313545 L60.6007814,57.6881969 L60.5653649,59.0221506 L60.5241712,60.3306305 L60.477084,61.6110513 L60.3951487,63.4734165 L60.3328192,64.6723792 L60.2641894,65.8342345 L60.189143,66.9563973 L60.1075638,68.0362822 C60.079269,68.3889103 60.0498661,68.7340612 60.0193356,69.071304 L59.9243421,70.0588776 C59.8915371,70.3798735 59.8575852,70.6925305 59.8224671,70.9964177 L59.7135943,71.8813391 L59.5759893,72.9313378 L60.6321431,73.0086145 C60.7404345,73.0165379 60.8565743,73.0230486 60.980271,73.0281547 L61.3737401,73.039268 L61.8108019,73.0420043 L62.2897078,73.0364138 L62.8087093,73.0225465 L63.3660577,73.0004524 L63.9600045,72.9701816 L64.9157218,72.9095535 L65.5935146,72.8590599 L66.6668045,72.7683322 L67.8027693,72.65977 L68.9955077,72.5335421 L70.2391183,72.3898175 L71.09354,72.2843641 L71.9662001,72.1712596 L73.3055624,71.9873662 L74.2161686,71.8553526 L75.6042535,71.6433304 L77.0137035,71.414656 L77.962292,71.2530386 L78.9160047,71.0841455 L80.1010337,70.8656941 C90.3782274,68.9317467 100.82777,65.9380752 110.814194,61.7699667 L111.898,61.311 C112.090174,62.5998288 112.309301,63.7951408 112.556376,64.9006467 L112.623,65.189 L111.977583,65.5032306 C98.9751663,71.7559095 82.2184148,75.7430104 61.7093315,77.4519049 L59.838315,77.6019414 L59.5853613,79.1965286 L59.3600693,80.5134091 L58.8142906,83.5541704 L58.1373854,87.1774563 L57.6417881,89.7546411 L57.0904538,92.5489905 L56.8147352,93.9150343 L56.5040979,95.4274632 L56.0673986,97.5059678 L55.7823049,98.8308492 L55.5024003,100.105152 L55.0929436,101.918122 L54.8273531,103.058677 L54.5680248,104.142812 L54.237,105.477 L54.553,89.283 L55.9625527,77.5878707 L53.051877,77.4490363 L50.2969963,77.3040154 L47.6025982,77.1475149 L45.8399411,77.0368074 L44.1041754,76.9210036 L42.3953051,76.8001056 L40.7133343,76.6741158 L39.0582671,76.5430364 L37.4301076,76.4068697 L35.8288597,76.265618 L34.2545276,76.1192836 L31.9435054,75.8902568 L30.4364805,75.7312254 L28.9563856,75.5671193 L26.7867459,75.3114499 L25.3739938,75.1346667 C25.1407803,75.1047806 24.9086896,75.0746833 24.6777215,75.0443749 L23.3053873,74.8599924 L21.9600034,74.6705465 L20.6415738,74.4760394 L19.3501028,74.2764735 L18.0855942,74.071851 L16.8480522,73.8621741 L15.6374809,73.6474453 C15.4379668,73.6112362 15.2395767,73.5748168 15.0423105,73.538187 L13.8722028,73.3158843 L12.7290759,73.0885353 L11.6129339,72.8561422 C11.4291592,72.8169898 11.2465091,72.7776273 11.0649835,72.7380548 L9.98932647,72.4980998 L8.94066447,72.2531065 L7.91900158,72.003077 L6.92434187,71.7480136 L5.9566894,71.4879187 C5.79766482,71.4441504 5.63976571,71.4001725 5.48299216,71.3559851 L4.55585819,71.0883471 L3.65574163,70.8156832 C3.50797387,70.7698205 3.36133202,70.7237485 3.21581614,70.6774673 L2.35623332,70.3972688 C2.07421008,70.3030325 1.79669144,70.2079595 1.52367807,70.1120501 L1.03,69.935 L1.05332294,69.4467297 C1.09242169,68.657153 1.13755796,67.9070454 1.18870711,67.1964834 L1.26993739,66.1603091 C1.28422635,65.9925598 1.29889035,65.8272845 1.31392899,65.6644843 L1.373,65.06 L2.05890453,65.2945969 C18.0559761,70.6866643 36.0635236,73.2573711 56.0783591,73.0112049 L57.0490047,72.9992668 L57.0669801,71.9918957 L57.4325736,64.7246369 C57.9176347,54.0177651 57.9777624,43.7265177 57.3474784,33.8652579 C56.8472581,26.0389413 55.9293572,19.1340591 54.5262962,13.3655911 L54.3541061,12.6576581 L53.0840345,12.5697854 L49.3636534,12.3517607 C46.9576837,12.2050365 44.7145272,12.0408144 42.3569374,11.8270813 C35.8206044,11.2345138 29.6024324,10.3626793 23.7642298,9.1066348 L22.8420716,8.90423433 C18.5648148,7.94658226 14.6550889,6.80489385 11.173968,5.46217209 L10.573,5.226 L10.9389345,4.16832479 L11.4077156,2.83561849 L11.967,1.267 L12.7977645,1.54905175 C41.069179,11.0357408 70.3173206,11.0348591 100.511979,1.55236275 L101.518,1.233 Z"></path>
            </g>
            <g fill-rule="nonzero" transform="translate(1.385288, 219.539381)" id="左手">
                <path fill="#FFFFFF" id="形状-509" d="M42.3428464,15.1751221 C42.3428464,15.1751221 49.3244103,9.4525808 55.336409,14.3910083 C55.336409,14.3910083 58.3247503,18.6881274 54.0809532,19.900521 C54.0809532,19.900521 49.3889993,20.4059646 50.072559,25.3740485 C50.072559,25.3740485 50.954689,31.670783 58.9312133,31.8562683 C58.9312133,31.8562683 68.5687395,32.6425369 65.8848115,35.9706076 C65.8848115,35.9706076 55.5477722,42.9806163 43.7384889,35.4656178 L41.3766323,33.9626182 L42.3428464,15.1751221 Z"></path>
                <path fill="#000000" id="形状-509备份" d="M44.1038531,12.8885451 C43.0102299,13.4480263 42.1860591,14.0106346 41.7089219,14.4017272 C41.4910717,14.5802913 41.3586335,14.8424527 41.3441662,15.1237614 L40.3779521,33.9112575 C40.3594512,34.2709977 40.5358567,34.6128887 40.8397568,34.8062796 L43.2016135,36.3092793 C48.4569955,39.6536133 53.8409191,40.5379197 59.0496605,39.5906728 C60.9077504,39.2527658 62.6242625,38.6993 64.1690975,38.009587 C64.9607377,37.6561483 65.6025233,37.3163195 66.0790696,37.0297127 L66.4373928,36.8040666 C66.5227607,36.7474679 66.5989264,36.6780898 66.6632246,36.5983601 C67.7156472,35.2933559 67.5396542,33.9252222 66.3512017,32.9559656 C65.5734409,32.3216536 64.390299,31.8544564 62.8802534,31.4873429 C62.0306957,31.2808034 61.1276724,31.1196118 60.2256678,30.9974556 C60.0156765,30.969017 59.8155487,30.9440701 59.6273847,30.9224271 L59.0125272,30.8595798 C55.8093554,30.7834026 53.6968341,29.7213181 52.3541418,28.0017986 C51.8707776,27.3827779 51.5218636,26.7176089 51.2871971,26.0541091 C51.2282707,25.8874997 51.1822503,25.7389847 51.1473552,25.6126515 L51.091871,25.3907719 L51.0628881,25.2353101 C50.8029047,23.3457393 51.3912275,22.1975031 52.5625716,21.484718 C52.9225696,21.2656524 53.3154813,21.1052652 53.7088587,20.9972214 L53.8400966,20.9629748 L54.0527073,20.916125 L54.1880591,20.8947686 L54.3556492,20.8620521 C56.371415,20.2861759 57.3688722,18.9828926 57.3582251,17.2969681 C57.3531747,16.4972457 57.125413,15.686573 56.7543538,14.8874368 C56.5357309,14.4165968 56.3156484,14.0476223 56.1574001,13.8200673 C56.1048907,13.7445608 56.042216,13.676659 55.9711484,13.6182821 C55.1863129,12.9735957 54.3594546,12.4722051 53.4964255,12.1087 C50.4242456,10.8147073 47.1893339,11.3100593 44.1038531,12.8885451 Z M53.0117872,14.0822626 C53.4956022,14.3111701 53.9676123,14.5982856 54.427323,14.9470503 L54.589,15.074 L54.6716646,15.2112159 L54.8011473,15.4469479 C54.8464314,15.5337748 54.8933378,15.6284414 54.9403633,15.7297185 C55.2010417,16.2911316 55.3553006,16.8401857 55.358265,17.3095983 L55.354894,17.4445189 C55.3164684,18.1056828 54.9489537,18.5664144 54.0031931,18.8785324 L53.867,18.92 L53.9738472,18.9062734 C53.3309417,18.9755308 52.4336469,19.2219788 51.5228979,19.7761869 C49.6902388,20.8913947 48.7096834,22.8051555 49.0818923,25.5103546 C49.2181167,26.4827605 49.704643,27.8583725 50.7777896,29.2326982 C52.4893259,31.4245779 55.1632652,32.7689192 58.9079657,32.8559981 L59.1461914,32.8815525 C59.3902889,32.9070997 59.6631177,32.9395282 59.9572631,32.9793635 C60.7956368,33.0929023 61.6329917,33.2423719 62.4077871,33.4307357 C63.6504229,33.732838 64.5982084,34.1070981 65.08716,34.5058684 L65.1623848,34.5693312 C65.3931321,34.7723653 65.4234558,34.8976157 65.2412919,35.1641951 L65.198,35.223 L65.0326848,35.3253722 C64.9822429,35.3555944 64.9292615,35.3867183 64.8737781,35.4186648 L64.511155,35.6195833 C64.184451,35.7941871 63.7970789,35.9854014 63.3537421,36.1833352 C61.9486437,36.8106609 60.3836318,37.3152775 58.6918153,37.6229464 L58.2738443,37.6945664 C53.6722841,38.4346317 48.9445766,37.5932732 44.2753644,34.6219564 L42.405,33.431 L43.317,15.693 L43.5031101,15.5646872 C43.9492803,15.2601155 44.4570793,14.9543654 45.0147442,14.6690724 C47.6249792,13.3337152 50.2852949,12.9263493 52.7200856,13.9518756 L53.0117872,14.0822626 Z"></path>
                <path fill="url(#linearGradient-3)" id="路径-3" d="M44.8307881,13.5096825 C32.3096717,0.50195556 20.5816906,-3.11245513 9.64684468,2.66645041 C-5.0153443,12.8013938 0.802275201,28.3535691 3.0216735,31.2459071 C5.24107179,34.138245 16.2099326,51.2829427 51.6586212,44.5129102 C42.0319692,33.2412421 39.7560248,22.9068329 44.8307881,13.5096825 Z"></path>
                <path fill="#000000" id="路径-3备份" d="M9.17959686,1.78232402 L9.07823419,1.84384351 C2.27311318,6.54774661 -0.870009882,12.759444 -0.996168763,19.6538601 C-1.08256085,24.3750735 0.403532729,29.3022728 2.07994644,31.6539292 L3.01690967,32.908185 L3.09028403,33.0047664 C3.55265436,33.6097448 4.01478635,34.1793019 4.530297,34.7673286 C5.91959369,36.3520552 7.50847878,37.8511222 9.38702641,39.2607119 C18.8197757,46.3386834 32.5712534,49.1763118 51.846212,45.4951574 C52.5999634,45.3512051 52.9173979,44.4469951 52.4190359,43.8634723 C43.0377068,32.8790483 40.8563011,22.973912 45.7106817,13.9848533 C45.9173896,13.6020836 45.8529285,13.1295906 45.5512423,12.81618 L44.7683435,12.0139789 C32.2543322,-0.630403765 20.3351941,-4.11324533 9.17959686,1.78232402 Z M43.3302271,13.403946 L43.609,13.688 L43.5898492,13.7282361 C39.0656411,22.7594635 40.9820511,32.5931444 49.212575,43.1034892 L49.795,43.836 L49.4846035,43.8900897 C31.7971328,46.9099157 19.234783,44.1496551 10.5873964,37.6609895 C8.8246557,36.3382968 7.33589707,34.9336962 6.03419829,33.4488897 C5.67139068,33.0350466 5.33633072,32.6304254 5.00723875,32.2129185 L4.61873085,31.7105624 L3.81502296,30.6371406 C2.36227446,28.7439069 0.922640582,24.1091193 1.00349648,19.6904514 L1.01392546,19.3075627 C1.23078892,13.3220713 3.9654163,7.95610528 9.83644331,3.75558744 L10.169,3.522 L10.1140925,3.5505768 C20.3727643,-1.87098062 31.388736,1.34137793 43.3302271,13.403946 Z"></path>
            </g>
            <g fill-rule="nonzero" transform="translate(138.064023, 242.580672) scale(-1, 1) translate(-138.064023, -242.580672) translate(104.385288, 219.539381)" id="右手">
                <path fill="#FFFFFF" id="形状-509" d="M42.3428464,15.1751221 C42.3428464,15.1751221 49.3244103,9.4525808 55.336409,14.3910083 C55.336409,14.3910083 58.3247503,18.6881274 54.0809532,19.900521 C54.0809532,19.900521 49.3889993,20.4059646 50.072559,25.3740485 C50.072559,25.3740485 50.954689,31.670783 58.9312133,31.8562683 C58.9312133,31.8562683 68.5687395,32.6425369 65.8848115,35.9706076 C65.8848115,35.9706076 55.5477722,42.9806163 43.7384889,35.4656178 L41.3766323,33.9626182 L42.3428464,15.1751221 Z"></path>
                <path fill="#000000" id="形状-509备份" d="M44.1038531,12.8885451 C43.0102299,13.4480263 42.1860591,14.0106346 41.7089219,14.4017272 C41.4910717,14.5802913 41.3586335,14.8424527 41.3441662,15.1237614 L40.3779521,33.9112575 C40.3594512,34.2709977 40.5358567,34.6128887 40.8397568,34.8062796 L43.2016135,36.3092793 C48.4569955,39.6536133 53.8409191,40.5379197 59.0496605,39.5906728 C60.9077504,39.2527658 62.6242625,38.6993 64.1690975,38.009587 C64.9607377,37.6561483 65.6025233,37.3163195 66.0790696,37.0297127 L66.4373928,36.8040666 C66.5227607,36.7474679 66.5989264,36.6780898 66.6632246,36.5983601 C67.7156472,35.2933559 67.5396542,33.9252222 66.3512017,32.9559656 C65.5734409,32.3216536 64.390299,31.8544564 62.8802534,31.4873429 C62.0306957,31.2808034 61.1276724,31.1196118 60.2256678,30.9974556 C60.0156765,30.969017 59.8155487,30.9440701 59.6273847,30.9224271 L59.0125272,30.8595798 C55.8093554,30.7834026 53.6968341,29.7213181 52.3541418,28.0017986 C51.8707776,27.3827779 51.5218636,26.7176089 51.2871971,26.0541091 C51.2282707,25.8874997 51.1822503,25.7389847 51.1473552,25.6126515 L51.091871,25.3907719 L51.0628881,25.2353101 C50.8029047,23.3457393 51.3912275,22.1975031 52.5625716,21.484718 C52.9225696,21.2656524 53.3154813,21.1052652 53.7088587,20.9972214 L53.8400966,20.9629748 L54.0527073,20.916125 L54.1880591,20.8947686 L54.3556492,20.8620521 C56.371415,20.2861759 57.3688722,18.9828926 57.3582251,17.2969681 C57.3531747,16.4972457 57.125413,15.686573 56.7543538,14.8874368 C56.5357309,14.4165968 56.3156484,14.0476223 56.1574001,13.8200673 C56.1048907,13.7445608 56.042216,13.676659 55.9711484,13.6182821 C55.1863129,12.9735957 54.3594546,12.4722051 53.4964255,12.1087 C50.4242456,10.8147073 47.1893339,11.3100593 44.1038531,12.8885451 Z M53.0117872,14.0822626 C53.4956022,14.3111701 53.9676123,14.5982856 54.427323,14.9470503 L54.589,15.074 L54.6716646,15.2112159 L54.8011473,15.4469479 C54.8464314,15.5337748 54.8933378,15.6284414 54.9403633,15.7297185 C55.2010417,16.2911316 55.3553006,16.8401857 55.358265,17.3095983 L55.354894,17.4445189 C55.3164684,18.1056828 54.9489537,18.5664144 54.0031931,18.8785324 L53.867,18.92 L53.9738472,18.9062734 C53.3309417,18.9755308 52.4336469,19.2219788 51.5228979,19.7761869 C49.6902388,20.8913947 48.7096834,22.8051555 49.0818923,25.5103546 C49.2181167,26.4827605 49.704643,27.8583725 50.7777896,29.2326982 C52.4893259,31.4245779 55.1632652,32.7689192 58.9079657,32.8559981 L59.1461914,32.8815525 C59.3902889,32.9070997 59.6631177,32.9395282 59.9572631,32.9793635 C60.7956368,33.0929023 61.6329917,33.2423719 62.4077871,33.4307357 C63.6504229,33.732838 64.5982084,34.1070981 65.08716,34.5058684 L65.1623848,34.5693312 C65.3931321,34.7723653 65.4234558,34.8976157 65.2412919,35.1641951 L65.198,35.223 L65.0326848,35.3253722 C64.9822429,35.3555944 64.9292615,35.3867183 64.8737781,35.4186648 L64.511155,35.6195833 C64.184451,35.7941871 63.7970789,35.9854014 63.3537421,36.1833352 C61.9486437,36.8106609 60.3836318,37.3152775 58.6918153,37.6229464 L58.2738443,37.6945664 C53.6722841,38.4346317 48.9445766,37.5932732 44.2753644,34.6219564 L42.405,33.431 L43.317,15.693 L43.5031101,15.5646872 C43.9492803,15.2601155 44.4570793,14.9543654 45.0147442,14.6690724 C47.6249792,13.3337152 50.2852949,12.9263493 52.7200856,13.9518756 L53.0117872,14.0822626 Z"></path>
                <path fill="url(#linearGradient-3)" id="路径-3" d="M44.8307881,13.5096825 C32.3096717,0.50195556 20.5816906,-3.11245513 9.64684468,2.66645041 C-5.0153443,12.8013938 0.802275201,28.3535691 3.0216735,31.2459071 C5.24107179,34.138245 16.2099326,51.2829427 51.6586212,44.5129102 C42.0319692,33.2412421 39.7560248,22.9068329 44.8307881,13.5096825 Z"></path>
                <path fill="#000000" id="路径-3备份" d="M9.17959686,1.78232402 L9.07823419,1.84384351 C2.27311318,6.54774661 -0.870009882,12.759444 -0.996168763,19.6538601 C-1.08256085,24.3750735 0.403532729,29.3022728 2.07994644,31.6539292 L3.01690967,32.908185 L3.09028403,33.0047664 C3.55265436,33.6097448 4.01478635,34.1793019 4.530297,34.7673286 C5.91959369,36.3520552 7.50847878,37.8511222 9.38702641,39.2607119 C18.8197757,46.3386834 32.5712534,49.1763118 51.846212,45.4951574 C52.5999634,45.3512051 52.9173979,44.4469951 52.4190359,43.8634723 C43.0377068,32.8790483 40.8563011,22.973912 45.7106817,13.9848533 C45.9173896,13.6020836 45.8529285,13.1295906 45.5512423,12.81618 L44.7683435,12.0139789 C32.2543322,-0.630403765 20.3351941,-4.11324533 9.17959686,1.78232402 Z M43.3302271,13.403946 L43.609,13.688 L43.5898492,13.7282361 C39.0656411,22.7594635 40.9820511,32.5931444 49.212575,43.1034892 L49.795,43.836 L49.4846035,43.8900897 C31.7971328,46.9099157 19.234783,44.1496551 10.5873964,37.6609895 C8.8246557,36.3382968 7.33589707,34.9336962 6.03419829,33.4488897 C5.67139068,33.0350466 5.33633072,32.6304254 5.00723875,32.2129185 L4.61873085,31.7105624 L3.81502296,30.6371406 C2.36227446,28.7439069 0.922640582,24.1091193 1.00349648,19.6904514 L1.01392546,19.3075627 C1.23078892,13.3220713 3.9654163,7.95610528 9.83644331,3.75558744 L10.169,3.522 L10.1140925,3.5505768 C20.3727643,-1.87098062 31.388736,1.34137793 43.3302271,13.403946 Z"></path>
            </g>
            <g fill="#FB0004" transform="translate(48.339030, 194.885550)" id="心">
                <path id="形状结合" d="M5.65938827,5.65938827 C13.2052393,-1.88646276 25.4394811,-1.88646276 32.9853321,5.65938827 L32.9853321,5.65938827 L40,12.674 L47.0146679,5.65938827 C54.5605189,-1.88646276 66.7947607,-1.88646276 74.3406117,5.65938827 C81.8864628,13.2052393 81.8864628,25.4394811 74.3406117,32.9853321 L67.326,40 L67.544614,40.2186702 L40.2186702,67.544614 L40,67.326 L39.7813298,67.544614 L12.455386,40.2186702 L12.674,40 L5.65938827,32.9853321 C-1.79768804,25.5282558 -1.88541835,13.4924549 5.39619734,5.92764389 Z"></path>
            </g>
            <g fill-rule="nonzero" transform="translate(140.315756, 23.815545)" id="星星">
                <path fill="#F3D401" id="多边形-3" d="M1,11.5209978 C3.21871382,9.87485528 4.6859278,6.36785602 5.40164193,1 C6.11735607,6.36785602 7.62035575,9.87485528 9.91064099,11.5209978 C7.62035575,13.1671403 6.11735607,16.6741396 5.40164193,22.0419956 C4.6859278,16.6741396 3.21871382,13.1671403 1,11.5209978 Z"></path>
                <path fill="#000000" id="多边形-3备份" d="M4.41041403,0.86783628 C3.72700992,5.99336712 2.35640038,9.26945821 0.404153076,10.7178998 C-0.134717692,11.1177071 -0.134717692,11.9242885 0.404153076,12.3240958 C2.35640038,13.7725374 3.72700992,17.0486285 4.41041403,22.1741593 C4.56469604,23.3312743 6.23858783,23.3312743 6.39286983,22.1741593 C7.07569062,17.0530034 8.47721706,13.782775 10.494277,12.3330132 C11.049429,11.9339977 11.049429,11.1079979 10.494277,10.7089824 C8.47721706,9.25922057 7.07569062,5.9889922 6.39286983,0.86783628 C6.23858783,-0.28927876 4.56469604,-0.28927876 4.41041403,0.86783628 Z M5.40724376,5.985 L5.48639204,6.24616965 C6.17945099,8.47207574 7.1082335,10.2004158 8.28677337,11.4270463 L8.38024376,11.521 L8.28677337,11.6149493 C7.1082335,12.8415798 6.17945099,14.5699198 5.48639204,16.7958259 L5.40724376,17.056 C4.72577906,14.7257925 3.80623653,12.925002 2.63280881,11.6541756 L2.50424376,11.521 L2.63280881,11.38782 C3.80623653,10.1169936 4.72577906,8.3162031 5.40724376,5.985 Z"></path>
                <path fill="#F3D401" id="多边形-3-拷贝" d="M63.9239027,99.4622671 C67.8603305,96.8141248 70.4369014,91.1241975 71.6536154,82.392485 C72.8703294,91.1241975 75.482686,96.8141248 79.4906852,99.4622671 C75.482686,102.181981 72.8703294,107.907694 71.6536154,116.639406 C70.4369014,107.907694 67.8603305,102.181981 63.9239027,99.4622671 Z"></path>
                <path fill="#000000" id="多边形-3-拷贝备份" d="M70.6631847,82.2544742 C69.4818541,90.7322586 67.016508,96.1765644 63.3657261,98.632545 C62.7810272,99.0258879 62.7756991,99.8844279 63.3554709,100.284997 C67.0138691,102.812618 69.4813285,108.295861 70.6631847,116.777417 C70.8233357,117.926736 72.4838951,117.926736 72.6440461,116.777417 C73.8255475,108.298407 76.325826,102.818345 80.0521866,100.289743 C80.641214,99.8900457 80.6358528,99.0203368 80.0419425,98.6279318 C76.3231505,96.1708728 73.8250282,90.7297572 72.6440461,82.2544742 C72.4838951,81.1051553 70.8233357,81.1051553 70.6631847,82.2544742 Z M71.6552438,87.818 L71.7048721,88.0193626 C73.0007746,93.2172685 74.9881354,97.000033 77.697288,99.3518995 L77.8372438,99.47 L77.6648231,99.6214119 C74.9903592,102.00208 73.0215203,105.76869 71.7299917,110.906739 L71.6552438,111.207 L71.5832609,110.908495 C70.3035149,105.77219 68.3636736,102.007123 65.7348209,99.6263328 L65.5582438,99.47 L65.7027717,99.3470858 C68.3657903,96.9950329 70.3239171,93.2138265 71.6081487,88.0176645 L71.6552438,87.818 Z"></path>
            </g>
            <path transform="translate(243.775921, 55.657157) rotate(20.000000) translate(-243.775921, -55.657157)" fill-rule="nonzero" fill="#000000" d="M201.880921,44.4921571 C204.120921,42.1821571 206.430921,39.1721571 208.390921,35.8121571 L212.450921,35.8121571 C213.850921,38.2621571 215.460921,41.3421571 216.090921,43.3021571 L221.690921,41.2721571 C221.200921,39.7321571 220.150921,37.7721571 219.030921,35.8121571 L231.910921,35.8121571 L231.910921,30.2821571 L211.190921,30.2821571 C211.960921,28.6021571 212.660921,26.9221571 213.220921,25.1721571 L206.920921,23.7021571 C204.750921,30.2821571 200.970921,36.6521571 196.420921,40.7121571 C197.890921,41.6221571 200.620921,43.3721571 201.880921,44.4921571 Z M187.320921,45.1221571 L193.060921,42.8121571 C192.430921,40.9221571 191.100921,38.2621571 189.840921,35.8121571 L199.850921,35.8121571 L199.850921,30.2821571 L183.470921,30.2821571 C184.170921,28.6021571 184.870921,26.9221571 185.500921,25.2421571 L179.200921,23.7021571 C176.960921,30.4221571 173.180921,37.1421571 168.840921,41.5521571 C170.380921,42.3221571 173.110921,44.1421571 174.300921,45.1221571 C176.540921,42.6021571 178.710921,39.3821571 180.670921,35.8121571 L183.190921,35.8121571 C184.940921,38.9621571 186.760921,42.6721571 187.320921,45.1221571 Z M221.200921,87.6121571 C228.200921,87.6121571 230.160921,85.3021571 231.000921,76.9721571 C229.180921,76.6221571 226.590921,75.6421571 225.120921,74.5221571 C224.630921,80.7521571 224.000921,82.0121571 220.710921,82.0121571 L206.850921,82.0121571 C202.720921,82.0121571 201.950921,81.3821571 201.950921,78.5821571 L201.950921,73.7521571 L232.330921,71.3721571 L231.700921,65.7721571 L201.950921,68.1521571 L201.950921,62.1321571 L226.520921,60.1721571 L225.890921,54.8521571 L201.950921,56.6721571 L201.950921,51.5621571 C211.050921,50.7221571 219.800921,49.5321571 226.730921,48.0621571 L223.510921,42.6721571 C211.680921,45.3321571 192.080921,47.0121571 175.070921,47.8521571 C175.700921,49.2521571 176.400921,51.6321571 176.540921,53.1721571 C182.560921,52.9621571 189.000921,52.6121571 195.370921,52.0521571 L195.370921,57.1621571 L173.810921,58.7721571 L174.370921,64.3021571 L195.370921,62.6221571 L195.370921,68.6421571 L170.450921,70.5321571 L171.080921,76.2721571 L195.370921,74.3121571 L195.370921,78.5821571 C195.370921,85.7221571 197.680921,87.6121571 206.290921,87.6121571 L221.200921,87.6121571 Z M302.540921,46.3121571 L302.540921,39.1021571 L317.520921,39.1021571 L317.520921,32.8021571 L302.540921,32.8021571 L302.540921,24.1221571 L296.100921,24.1221571 L296.100921,32.8021571 L277.970921,32.8021571 L277.970921,24.0521571 L271.530921,24.0521571 L271.530921,32.8021571 L256.760921,32.8021571 L256.760921,39.1021571 L271.530921,39.1021571 L271.530921,46.2421571 L277.970921,46.2421571 L277.970921,39.1021571 L296.100921,39.1021571 L296.100921,46.3121571 L302.540921,46.3121571 Z M291.060921,65.0721571 L297.220921,61.9921571 C295.540921,57.0921571 291.410921,49.6721571 287.490921,44.0721571 L281.890921,46.7321571 C285.670921,52.5421571 289.660921,60.2421571 291.060921,65.0721571 Z M295.750921,86.9821571 C303.100921,86.9821571 304.990921,84.1121571 305.900921,73.1921571 C304.150921,72.7021571 301.280921,71.7221571 299.880921,70.6021571 C299.460921,79.2121571 298.830921,80.6821571 295.330921,80.6821571 L283.150921,80.6821571 C279.370921,80.6821571 278.670921,80.2621571 278.670921,77.6721571 L278.670921,55.0621571 L272.160921,55.0621571 L272.160921,77.7421571 C272.160921,84.9521571 274.330921,86.9821571 282.590921,86.9821571 L295.750921,86.9821571 Z M312.060921,80.6121571 L318.710921,78.5121571 C317.800921,72.8421571 314.510921,63.9521571 311.080921,57.0921571 L304.920921,58.8421571 C308.140921,65.8421571 311.220921,75.0121571 312.060921,80.6121571 Z M260.890921,81.3121571 C264.460921,75.5021571 266.910921,66.5421571 268.450921,59.4021571 L262.290921,57.5821571 C260.890921,64.6521571 258.230921,72.7021571 254.730921,78.0921571 L260.890921,81.3121571 Z"></path>
        </g>
    </g>
</svg>